<svg width="500" height="71" viewBox="0 0 500 71" version="1.1" xmlns="http://www.w3.org/2000/svg" xmlns:xlink="http://www.w3.org/1999/xlink">
<title>Group</title>
<desc>Created using Figma</desc>
<g id="Canvas" transform="translate(-264 802)">
<g id="Group">
<g id="Logo">
<g id="Vector">
<use xlink:href="#path0_fill" transform="translate(264 -802)"/>
</g>
<g id="Vector">
<use xlink:href="#path1_fill" transform="translate(283.571 -784.321)"/>
</g>
</g>
<g id="Bitmark">
<g id="Vector">
<use xlink:href="#path2_fill" transform="translate(720.663 -798.059)"/>
</g>
<g id="Vector">
<use xlink:href="#path3_fill" transform="translate(593.244 -798.168)"/>
</g>
<g id="Vector">
<use xlink:href="#path4_fill" transform="translate(378.898 -798.108)"/>
</g>
<g id="Vector">
<use xlink:href="#path5_fill" transform="translate(464.885 -798.059)"/>
</g>
<g id="Vector">
<use xlink:href="#path6_fill" transform="translate(440.119 -798.059)"/>
</g>
<g id="Vector">
<use xlink:href="#path7_fill" transform="translate(662.72 -798.047)"/>
</g>
<g id="Vector">
<use xlink:href="#path8_fill" transform="translate(523.78 -798.156)"/>
</g>
</g>
</g>
</g>
<defs>
<path id="path0_fill" d="M 35.3467 0C 15.8596 0 0 15.7512 0 35.1177C 0 54.4723 15.8596 70.2234 35.3467 70.2234C 54.8338 70.2234 70.6934 54.4723 70.6934 35.1057C 70.6934 15.7512 54.8338 0 35.3467 0ZM 35.3467 66.2585C 18.053 66.2585 3.98901 52.291 3.98901 35.1057C 3.98901 17.9325 18.053 3.95285 35.3467 3.95285C 52.6405 3.95285 66.7044 17.9204 66.7044 35.1057C 66.7044 52.291 52.6405 66.2585 35.3467 66.2585Z"/>
<path id="path1_fill" d="M 25.3079 16.8358C 27.0915 15.0522 28.2002 12.5816 28.2002 9.87009C 28.2002 5.02543 24.7053 1.01232 20.1017 0.192823C 19.5353 0.0964115 18.9448 0.024102 18.3543 0.024102L 10.2557 0.024102L 10.2557 -3.67779e-07L 5.88108 -3.67779e-07L 5.88108 23.2833L -7.35558e-07 23.2833L -7.35558e-07 27.1036L 5.88108 27.1036L 5.88108 35.0093L 8.06238 35.0093L 8.06238 35.0334L 20.1017 35.0334C 25.4887 34.9731 29.9477 30.5985 29.9477 25.1994C 29.9477 21.6563 28.0918 18.5712 25.3079 16.8358ZM 10.2678 4.38671L 18.3663 4.38671C 21.3912 4.38671 23.8376 6.83314 23.8376 9.85804C 23.8376 12.8468 21.4515 15.2571 18.4748 15.3173L 10.2678 15.3173L 10.2678 4.38671ZM 20.1138 30.6467L 10.2678 30.6467L 10.2678 27.0915L 16.3658 27.0915L 16.3658 23.2712L 10.2678 23.2712L 10.2678 19.7161L 18.3663 19.7161L 20.1138 19.7161C 23.1387 19.7161 25.5851 22.1625 25.5851 25.1874C 25.573 28.2002 23.1266 30.6467 20.1138 30.6467Z"/>
<path id="path2_fill" d="M 43.3368 9.19448e-08L 34.1175 9.19448e-08L 29.4777 7.15852L 18.5712 23.9823L 16.4622 27.2482L 7.77315 27.2482L 7.77315 9.19448e-08L 5.88447e-06 9.19448e-08L 5.88447e-06 62.2816L 7.77315 62.2816L 7.77315 35.0334L 16.4622 35.0334L 18.5712 38.2993L 29.4777 55.123L 34.1175 62.2816L 43.3368 62.2816L 23.211 31.1408L 43.3368 9.19448e-08Z"/>
<path id="path3_fill" d="M 31.2974 0.0602568L 31.2733 -9.19448e-08L 23.5605 -9.19448e-08L 23.5846 0.0602568L 23.5605 0.108463L 0 62.39L 8.46007 62.39L 15.5342 43.0717L 39.3357 43.0717L 46.3978 62.3418L 54.8579 62.3418L 31.2974 0.0602568ZM 18.3904 35.2744L 27.441 10.5691L 36.4916 35.2744L 18.3904 35.2744Z"/>
<path id="path4_fill" d="M 34.5513 29.9597C 37.7329 26.7902 39.6973 22.4035 39.6973 17.5589C 39.6973 8.95418 33.4788 1.80771 25.2959 0.337439C 24.2836 0.156668 23.2471 0.0482056 22.1866 0.0482056L 7.7852 0.0482056L 7.7852 -9.19448e-08L 2.94223e-06 -9.19448e-08L 2.94223e-06 62.2695L 3.8926 62.2695L 3.8926 62.3177L 25.2959 62.3177L 25.2959 62.3057C 34.8888 62.1972 42.8186 54.412 42.8186 44.795C 42.8065 38.5403 39.5044 33.057 34.5513 29.9597ZM 7.77315 7.8334L 22.1746 7.8334C 27.5495 7.8334 31.9121 12.196 31.9121 17.5589C 31.9121 22.8735 27.6579 27.1759 22.3794 27.2843L 7.7852 27.2843L 7.7852 7.8334L 7.77315 7.8334ZM 25.2959 35.0816C 30.6708 35.0816 35.0334 39.4442 35.0334 44.8071C 35.0334 50.182 30.6708 54.5446 25.3079 54.5446L 25.3079 54.5566L 25.3079 54.5446L 7.79724 54.5446L 7.79724 35.0816L 22.1987 35.0816L 25.2959 35.0816Z"/>
<path id="path5_fill" d="M 25.32 9.19448e-08L 17.5348 9.19448e-08L 2.94223e-06 9.19448e-08L 2.94223e-06 7.7852L 17.5348 7.7852L 17.5348 62.2816L 25.32 62.2816L 25.32 7.7852L 43.373 7.7852L 43.373 9.19448e-08L 25.32 9.19448e-08Z"/>
<path id="path6_fill" d="M 7.7852 0L 2.94223e-06 0L 2.94223e-06 62.2695L 7.7852 62.2695L 7.7852 0Z"/>
<path id="path7_fill" d="M 25.1512 34.0813C 31.9844 31.6952 36.9013 25.1994 36.9013 17.5589C 36.9013 8.94213 30.6828 1.80771 22.4999 0.337439C 21.4876 0.156668 20.4512 0.0482056 19.3907 0.0482056L 7.78521 0.0482056L 7.78521 -9.19448e-08L 5.48034e-14 -9.19448e-08L 5.48034e-14 62.2816L 3.8926 62.2816L 7.78521 62.2816L 7.78521 54.5446L 7.78521 35.0695L 16.5345 35.0695L 18.6194 38.2873L 29.5259 55.111L 34.1657 62.2695L 43.385 62.2695L 25.1512 34.0813ZM 7.76108 27.2843L 7.76108 7.82135L 19.3666 7.82135C 24.7415 7.82135 29.092 12.184 29.092 17.5589C 29.092 22.9338 24.7294 27.2843 19.3666 27.2843L 7.76108 27.2843Z"/>
<path id="path8_fill" d="M 27.3808 44.554L 47.0968 14.3532L 47.0968 62.3177L 54.882 62.3177L 54.882 0.0482055L 47.2053 0.0482055L 47.133 -4.59724e-08L 27.3808 30.478L 7.78519 0.108462L 7.78519 0.0482055L 1.17689e-05 0.0482055L 1.17689e-05 62.3177L 7.78519 62.3177L 7.78519 14.4255L 27.3808 44.554Z"/>
</defs>
</svg>
