<svg width="108" height="48" viewBox="0 0 108 48" fill="none" xmlns="http://www.w3.org/2000/svg">
<path d="M108 32.2898H106.078L105.11 33.7881L102.836 37.3093L102.397 37.9929H100.585V32.2898H98.9644V45.3255H100.585V39.6224H102.397L102.836 40.3059L105.11 43.8272L106.078 45.3255H108L103.804 38.8076L108 32.2898Z" fill="black"/>
<path d="M78.9238 32.2797L78.9187 32.2671H77.3107L77.3157 32.2797L77.3107 32.2898L72.3984 45.3255H74.1623L75.6372 41.2821H80.5997L82.0721 45.3154H83.836L78.9238 32.2797ZM76.2327 39.6501L78.1197 34.4792L80.0067 39.6501H76.2327Z" fill="black"/>
<path d="M34.9122 38.5517C35.5756 37.8883 35.9851 36.9701 35.9851 35.9561C35.9851 34.1551 34.6886 32.6594 32.9825 32.3516C32.7715 32.3138 32.5554 32.2911 32.3343 32.2911L29.3317 32.281H27.7085V45.3142H28.5201V45.3242H32.9825V45.3217C34.9826 45.299 36.6359 43.6696 36.6359 41.6567C36.6334 40.3476 35.9449 39.1999 34.9122 38.5517ZM29.3292 33.9206H32.3318C33.4524 33.9206 34.362 34.8337 34.362 35.9561C34.362 37.0685 33.475 37.969 32.3745 37.9917H29.3317V33.9206H29.3292ZM32.9825 39.6237C34.1032 39.6237 35.0128 40.5368 35.0128 41.6592C35.0128 42.7842 34.1032 43.6973 32.985 43.6973H29.3342V39.6237H32.3368H32.9825Z" fill="black"/>
<path d="M50.9153 32.2898H49.2921H45.6362V33.9193H49.2921V45.3255H50.9153V33.9193H54.6792V32.2898H50.9153Z" fill="black"/>
<path d="M42.0958 32.2898H40.4727V45.323H42.0958V32.2898Z" fill="black"/>
<path d="M92.1277 39.4255C93.5523 38.9261 94.5775 37.5665 94.5775 35.9673C94.5775 34.1638 93.281 32.6706 91.5749 32.3629C91.3638 32.325 91.1477 32.3023 90.9266 32.3023H88.507V32.2922H86.8838V45.3279H87.6954H88.507V43.7085V39.6324H90.3311L90.7658 40.3058L93.0398 43.8271L94.0071 45.3254H95.9293L92.1277 39.4255ZM88.5019 38.0029V33.9293H90.9216C92.0422 33.9293 92.9493 34.8424 92.9493 35.9673C92.9493 37.0923 92.0397 38.0029 90.9216 38.0029H88.5019Z" fill="black"/>
<path d="M63.6243 41.5948L67.7349 35.2737V45.3128H69.3581V32.2796H67.7576L67.7425 32.2695L63.6243 38.6486L59.5387 32.2922V32.2796H57.9155V45.3128H59.5387V35.2888L63.6243 41.5948Z" fill="black"/>
<path d="M9.05717 29.5813C3.98515 29.5813 0 33.7965 0 38.8364C0 43.968 4.1663 47.9999 9.14774 47.9999C14.1292 47.9999 18.2049 43.8763 18.2049 38.7448C18.2049 33.7049 14.1292 29.5813 9.05717 29.5813ZM9.05717 46.9003C4.70973 46.9003 1.17743 43.2349 1.17743 38.8364C1.17743 34.4379 4.8003 30.8642 9.14774 30.8642C13.4952 30.8642 17.0275 34.5296 17.0275 38.8364C17.0275 43.2349 13.4952 46.9003 9.05717 46.9003Z" fill="black"/>
<path d="M11.5932 38.6531C12.5895 37.6451 12.5895 35.9957 11.5932 34.9877C11.1403 34.5295 10.5063 34.2546 9.78174 34.2546H6.52116V40.3942H4.98145V41.4022H6.52116V43.5098H10.2346C11.6837 43.5098 12.7706 42.3185 12.7706 40.944C12.7706 39.936 12.3178 39.1113 11.5932 38.6531ZM7.60802 35.3543H9.69117C10.5063 35.3543 11.1403 35.9957 11.1403 36.8204C11.1403 37.6451 10.5063 38.2866 9.69117 38.2866H7.60802V35.3543ZM10.2346 42.3185H7.60802V41.4022H9.23831V40.3942H7.60802V39.4778H10.144C10.9592 39.4778 11.5932 40.1193 11.5932 40.944C11.5932 41.6771 10.9592 42.3185 10.2346 42.3185Z" fill="black"/>
<path d="M108 0H27.835V2.23256H108V0Z" fill="black"/>
</svg>
